<?xml version="1.0" encoding="utf-8"?>
<!-- Generator: Adobe Illustrator 19.0.0, SVG Export Plug-In . SVG Version: 6.00 Build 0)  -->
<svg version="1.0" id="Layer_1" xmlns="http://www.w3.org/2000/svg" xmlns:xlink="http://www.w3.org/1999/xlink" x="0px" y="0px"
	 viewBox="334 37 1280 720" style="enable-background:new 334 37 1280 720;" xml:space="preserve">
<style type="text/css">
	.st0{opacity:0.2;enable-background:new    ;}
	.st1{opacity:0.2;}
</style>
<g id="Layer_2">
</g>
<path d="M1098.5,392L1098.5,392L1098.5,392z"/>
<path d="M1098.5,309.1L1098.5,309.1L1098.5,309.1z"/>
<path d="M1098.5,226.2L1098.5,226.2L1098.5,226.2z"/>
<path d="M1098.5,267.6L1098.5,267.6L1098.5,267.6z"/>
<path d="M1098.5,433.4L1098.5,433.4L1098.5,433.4z"/>
<path d="M1098.5,350.5L1098.5,350.5L1098.5,350.5z"/>
<path d="M1098.5,184.7L1098.5,184.7L1098.5,184.7z"/>
<path d="M1098.5,195.8c0-6.1-5-11.1-11.1-11.1H736.6c-6.1,0-14.6,3.5-19,7.9l-25.7,25.7c-4.3,4.3-7.9,12.9-7.9,19v226.5
	c0,6.1,5,11.1,11.1,11.1H1046c6.1,0,14.6-3.5,19-7.9l25.7-25.7c4.3-4.3,7.9-12.9,7.9-19L1098.5,195.8z"/>
<path class="st0" d="M1049.3,342.7l-25.8-25.7c-4.3-4.3-12.9-7.9-19-7.9h-19.2c-6.1,0-11.1,0-11.1,0s3.5-3.5,7.9-7.9l67.2-67.2
	c4.3-4.3,2.9-7.9-3.3-7.9H943.8c-6.1,0-14.6,3.5-19,7.9L692.1,466.7c-1.8,1.8-3.5,3.5-4.9,4.9c2,2,4.8,3.3,7.8,3.3l0,0h100h168
	c6.1,0,11.1,0,11.1,0s3.6-3.6,7.9-7.9l67.1-67.1c4.3-4.3,7.9-12.9,7.9-19v-19.2C1057.1,355.5,1053.5,347,1049.3,342.7z"/>
<path d="M943.8,350.5c-6.1,0-14.6-3.5-19-7.9l-25.7-25.7c-4.3-4.3-7.9-12.9-7.9-19v-19.2c0-6.1,3.5-14.6,7.8-19l25.7-25.7
	c4.3-4.3,12.9-7.9,19-7.9H1046c6.1,0,7.6,3.5,3.3,7.9l-25.7,25.7c-4.3,4.3-12.9,7.9-19,7.9h-60.7c-6.1,0-11.1,5-11.1,11.1V298
	c0,6.1,5,11.1,11.1,11.1h60.7c6.1,0,14.6,3.5,19,7.9l25.7,25.7c4.3,4.3,7.9,12.9,7.9,19v19.2c0,6.1-3.5,14.6-7.9,19l-25.7,25.7
	c-4.3,4.3-12.9,7.9-19,7.9h-60.7c-6.1,0-14.6-3.5-19-7.9l-25.7-25.7c-4.3-4.3-2.9-7.9,3.3-7.9h102.1c6.1,0,11.1-5,11.1-11.1v-19.2
	c0-6.1,0-11.1,0-11.1s-5,0-11.1,0L943.8,350.5z"/>
<g class="st1">
	<path d="M684,320.7c0-6.1,0-11.2,0-11.4s3.5-3.8,7.9-8.1L759,234c4.3-4.3,12.9-7.9,19-7.9h102.2c6.1,0,7.6,3.5,3.3,7.9l-67.2,67.2
		c-4.3,4.3-7.9,7.9-7.9,7.9s5,0,11.1,0h19.2c6.1,0,10.8,5,10.3,11.1l-1.1,15.6c-0.4,6.1-1.7,12-2.8,13.1c-1.1,1.1-5.6,5.6-9.9,9.9
		L810,384c-4.3,4.3-7.9,7.9-7.9,7.9s4.9,0.1,11,0.1h18c6.1,0,14.8,3.4,19.3,7.5l26.8,24.7c4.5,4.1,8.2,7.6,8.1,7.8
		c-0.1,0.1-3.8,3.8-8.1,8.1L842.5,475H695.3c-6.1,0-11.1-5-11.1-11.1L684,320.7z"/>
</g>
<path d="M778,392c-6.1,0-11.1-5-11.1-11.1v-19.2c0-6.1,5-11.1,11.1-11.1h60.7c6.1,0,11.1-5,11.1-11.1v-19.2c0-6.1-5-11.1-11.1-11.1
	H778c-6.1,0-11.1-5-11.1-11.1v-19.2c0-6.1,5-11.1,11.1-11.1h60.7c6.1,0,14.6-3.5,19-7.9l25.7-25.7c4.3-4.3,2.9-7.9-3.3-7.9H778
	c-6.1,0-14.6,3.5-19,7.9l-25.7,25.7c-4.3,4.3-7.9,12.9-7.9,19V381c0,6.1,3.5,14.6,7.9,19l25.7,25.7c4.3,4.3,12.9,7.9,19,7.9h102.1
	c6.1,0,7.6-3.5,3.3-7.9L857.7,400c-4.3-4.3-12.9-7.9-19-7.9L778,392z"/>
<g>
	<path d="M1225.6,276.4c-1.6,3.8-3.9,7.1-6.7,9.9c-2.8,2.8-6.1,5.1-9.9,6.7c-3.8,1.6-7.8,2.4-12.1,2.4h-8.5c-4.3,0-8.3-0.8-12.1-2.4
		c-3.8-1.6-7.1-3.8-9.9-6.7c-2.8-2.8-5.1-6.1-6.7-9.9c-1.6-3.8-2.4-7.8-2.4-12.1v-47.9c0-4.3,0.8-8.3,2.4-12.1
		c1.6-3.8,3.8-7.1,6.7-9.9c2.8-2.8,6.1-5.1,9.9-6.7c3.8-1.6,7.8-2.4,12.1-2.4h8.5c4.3,0,8.3,0.8,12.1,2.4c3.8,1.6,7.1,3.9,9.9,6.7
		s5.1,6.1,6.7,9.9c1.6,3.8,2.4,7.8,2.4,12.1v25h-58V265c0,2.6,0.5,5,1.5,7.2c1,2.2,2.3,4.2,3.9,5.9c1.7,1.7,3.6,3,5.9,3.9
		c2.2,1,4.6,1.4,7.2,1.4h8.5c2.6,0,5-0.5,7.2-1.4c2.2-1,4.2-2.3,5.9-3.9c1.7-1.7,3-3.6,3.9-5.9c1-2.2,1.5-4.6,1.5-7.2v-7l12.7,2.1
		v4.2C1228,268.6,1227.3,272.6,1225.6,276.4z M1215.3,215.7c0-2.6-0.5-5-1.5-7.2s-2.3-4.2-3.9-5.9c-1.7-1.7-3.6-3-5.9-3.9
		c-2.2-1-4.6-1.4-7.2-1.4h-8.5c-2.6,0-5,0.5-7.2,1.4c-2.2,1-4.2,2.3-5.9,3.9c-1.7,1.7-3,3.6-3.9,5.9c-1,2.2-1.5,4.6-1.5,7.2v15.7
		h45.4L1215.3,215.7L1215.3,215.7z"/>
	<path d="M1365.6,293.4v-77.7c0-2.6-0.5-5-1.5-7.2s-2.3-4.2-3.9-5.9c-1.7-1.7-3.6-3-5.9-3.9c-2.2-1-4.6-1.4-7.2-1.4h-6.3
		c-2.6,0-5,0.5-7.2,1.4c-2.2,1-4.2,2.3-5.9,3.9c-1.7,1.7-3,3.6-4,5.9c-1,2.2-1.4,4.6-1.4,7.2v77.7h-12.6v-77.7c0-2.6-0.5-5-1.4-7.2
		c-1-2.2-2.3-4.2-4-5.9c-1.7-1.7-3.7-3-5.9-3.9c-2.2-1-4.6-1.4-7.2-1.4h-6.3c-2.6,0-5,0.5-7.2,1.4c-2.2,1-4.2,2.3-5.9,3.9
		c-1.7,1.7-3,3.6-3.9,5.9c-1,2.2-1.5,4.6-1.5,7.2v77.7h-12.7V187.3h4.2l6.9,10.8c2.9-3.9,6.5-7.1,10.9-9.4c4.4-2.3,9.2-3.5,14.3-3.5
		h1c6,0,11.4,1.5,16.3,4.5c4.8,3,8.6,6.9,11.2,11.8c1.3-2.4,2.9-4.6,4.9-6.6c1.9-2,4.1-3.7,6.4-5.1c2.4-1.4,4.9-2.5,7.7-3.3
		s5.6-1.2,8.6-1.2h1c4.3,0,8.3,0.8,12.1,2.4c3.8,1.6,7.1,3.9,9.9,6.7s5.1,6.1,6.7,9.9c1.6,3.8,2.4,7.8,2.4,12.1v77H1365.6
		L1365.6,293.4L1365.6,293.4z"/>
	<path d="M1470.4,293.4l-7-10.8c-2.9,3.9-6.5,7.1-10.9,9.4c-4.3,2.3-9.1,3.5-14.3,3.5h-3.2c-4.3,0-8.3-0.8-12.1-2.4
		c-3.8-1.6-7.1-3.8-9.9-6.7c-2.8-2.8-5.1-6.1-6.7-9.9s-2.4-7.8-2.4-12.1v-77h12.7V265c0,2.6,0.5,5,1.4,7.2c1,2.2,2.3,4.2,3.9,5.9
		c1.7,1.7,3.6,3,5.9,3.9c2.2,1,4.6,1.4,7.2,1.4h8.5c2.5,0,5-0.5,7.2-1.4c2.2-1,4.2-2.3,5.9-3.9c1.7-1.7,3-3.6,3.9-5.9
		c1-2.2,1.5-4.6,1.5-7.2v-77.7h12.7v106.1H1470.4z"/>
	<path d="M1504.4,293.4V144.9h12.7v148.5H1504.4z"/>
	<path d="M1613.4,293.4l-7-10.6c-2.9,3.8-6.5,6.9-10.9,9.2c-4.3,2.3-9.1,3.5-14.3,3.5h-3.2c-4.3,0-8.3-0.8-12.1-2.4
		c-3.8-1.6-7.1-3.8-9.9-6.7c-2.8-2.8-5.1-6.1-6.7-9.9s-2.4-7.8-2.4-12.1v-1c0-4.3,0.8-8.3,2.4-12.1s3.8-7.1,6.7-9.9
		c2.8-2.8,6.1-5.1,9.9-6.7c3.8-1.6,7.8-2.4,12.1-2.4h26.9v-16.4c0-2.6-0.5-5-1.4-7.2c-1-2.2-2.3-4.2-3.9-5.9c-1.7-1.7-3.6-3-5.9-3.9
		c-2.2-1-4.6-1.4-7.2-1.4h-7.5c-2.6,0-5,0.5-7.2,1.4c-2.2,1-4.2,2.3-5.9,3.9c-1.7,1.7-3,3.6-3.9,5.9c-1,2.2-1.4,4.6-1.4,7.2v3.8
		l-12.7-2.1v-1c0-4.3,0.8-8.3,2.4-12.1s3.9-7.1,6.7-9.9c2.8-2.8,6.1-5.1,9.9-6.7c3.8-1.6,7.8-2.4,12.1-2.4h7.5
		c4.3,0,8.3,0.8,12.1,2.4c3.8,1.6,7.1,3.9,9.9,6.7s5.1,6.1,6.7,9.9c1.6,3.8,2.4,7.8,2.4,12.1v77L1613.4,293.4L1613.4,293.4z
		 M1604.9,242H1578c-2.6,0-5,0.5-7.2,1.5s-4.2,2.3-5.9,4c-1.7,1.7-3,3.7-3.9,5.9c-1,2.2-1.5,4.6-1.5,7.2v4.5c0,2.6,0.5,5,1.5,7.2
		s2.3,4.2,3.9,5.9c1.7,1.7,3.6,3,5.9,3.9c2.2,1,4.6,1.4,7.2,1.4h8.5c2.6,0,5-0.5,7.2-1.4c2.2-1,4.2-2.3,5.9-3.9
		c1.7-1.7,3-3.6,3.9-5.9c1-2.2,1.5-4.6,1.5-7.2L1604.9,242L1604.9,242z"/>
	<path d="M1681.9,293.4c-3.9,0-7.5-0.7-10.9-2.2s-6.4-3.5-8.9-6c-2.5-2.6-4.5-5.5-6-8.9c-1.5-3.4-2.2-7-2.2-10.9v-66h-19.1v-12.1
		h19.1v-25.5l12.7-2.1v27.6h26.9v12.1h-26.9V266c0,2.1,0.4,4.1,1.2,6c0.8,1.8,1.9,3.4,3.3,4.8c1.4,1.4,3,2.5,4.9,3.3s3.9,1.2,6,1.2
		h11.6v12.1H1681.9L1681.9,293.4z"/>
	<path d="M1720.1,161.9v-17h14.8v17H1720.1z M1721.1,293.4V187.3h12.7v106.1H1721.1z"/>
	<path d="M1831.9,276.4c-1.6,3.8-3.9,7.1-6.7,9.9c-2.8,2.8-6.1,5.1-9.9,6.7c-3.8,1.6-7.8,2.4-12.1,2.4h-8.5c-4.3,0-8.3-0.8-12.1-2.4
		c-3.8-1.6-7.1-3.8-9.9-6.7c-2.8-2.8-5.1-6.1-6.7-9.9c-1.6-3.8-2.4-7.8-2.4-12.1v-47.9c0-4.3,0.8-8.3,2.4-12.1s3.8-7.1,6.7-9.9
		c2.8-2.8,6.1-5.1,9.9-6.7c3.8-1.6,7.8-2.4,12.1-2.4h8.5c4.3,0,8.3,0.8,12.1,2.4c3.8,1.6,7.1,3.9,9.9,6.7s5.1,6.1,6.7,9.9
		c1.6,3.8,2.4,7.8,2.4,12.1v47.9C1834.4,268.6,1833.6,272.6,1831.9,276.4z M1821.6,215.7c0-2.6-0.5-5-1.4-7.2
		c-1-2.2-2.3-4.2-3.9-5.9c-1.7-1.7-3.6-3-5.9-3.9c-2.2-1-4.6-1.4-7.2-1.4h-8.5c-2.6,0-5,0.5-7.2,1.4c-2.2,1-4.2,2.3-5.9,3.9
		c-1.7,1.7-3,3.6-3.9,5.9c-1,2.2-1.4,4.6-1.4,7.2V265c0,2.6,0.5,5,1.4,7.2c1,2.2,2.3,4.2,3.9,5.9c1.7,1.7,3.6,3,5.9,3.9
		c2.2,1,4.6,1.4,7.2,1.4h8.5c2.6,0,5-0.5,7.2-1.4c2.2-1,4.2-2.3,5.9-3.9c1.7-1.7,3-3.6,3.9-5.9c1-2.2,1.4-4.6,1.4-7.2V215.7z"/>
	<path d="M1918.1,293.4v-77.7c0-2.6-0.5-5-1.5-7.2s-2.3-4.2-3.9-5.9c-1.7-1.7-3.6-3-5.9-3.9c-2.2-1-4.6-1.4-7.2-1.4h-8.5
		c-2.6,0-5,0.5-7.2,1.4c-2.2,1-4.2,2.3-5.9,3.9c-1.7,1.7-3,3.6-3.9,5.9c-1,2.2-1.4,4.6-1.4,7.2v77.7H1860V187.3h4.2l6.9,10.8
		c2.9-3.9,6.5-7.1,10.9-9.4c4.4-2.3,9.2-3.5,14.3-3.5h3.2c4.3,0,8.3,0.8,12.1,2.4c3.8,1.6,7.1,3.9,9.9,6.7s5.1,6.1,6.7,9.9
		c1.6,3.8,2.4,7.8,2.4,12.1v77L1918.1,293.4L1918.1,293.4z"/>
	<path d="M1230.1,446.1c0,4.3-0.9,8.2-2.6,11.8c-1.7,3.6-4.1,6.6-7,9.2c-3,2.6-6.4,4.5-10.3,6c-3.9,1.4-8,2.1-12.3,2.1h-8.5
		c-4.3,0-8.4-0.8-12.3-2.4c-3.9-1.6-7.3-3.8-10.3-6.7c-2.9-2.8-5.3-6.1-7-9.9c-1.8-3.8-2.6-7.8-2.6-12.1v-4.2l12.7-2.1v7
		c0,2.6,0.5,5,1.6,7.2c1.1,2.2,2.5,4.2,4.3,5.9c1.8,1.7,3.9,3,6.2,3.9c2.3,1,4.8,1.4,7.4,1.4h8.5c2.6,0,5-0.4,7.4-1.1
		c2.3-0.8,4.4-1.9,6.3-3.3c1.8-1.4,3.3-3.1,4.4-5.1s1.6-4.3,1.6-6.8c0-3.8-0.8-6.9-2.5-9.3s-3.9-4.4-6.6-6.1c-2.7-1.6-5.8-3-9.3-4
		c-3.5-1.1-7.1-2.1-10.7-3.2c-3.7-1.1-7.2-2.3-10.7-3.7c-3.5-1.4-6.6-3.2-9.3-5.4c-2.7-2.2-4.9-5.1-6.6-8.4
		c-1.7-3.4-2.5-7.6-2.5-12.6c0-4.3,0.8-8.2,2.5-11.8c1.7-3.6,3.9-6.6,6.7-9.2c2.8-2.6,6.1-4.5,9.9-6c3.8-1.4,7.8-2.1,12.1-2.1h7.5
		c4.3,0,8.3,0.8,12.1,2.4c3.8,1.6,7.1,3.9,9.9,6.7c2.8,2.8,5.1,6.1,6.7,10c1.6,3.8,2.4,7.8,2.4,12.1v0.4l-12.7,2.1v-3.2
		c0-2.5-0.5-5-1.5-7.2s-2.3-4.2-3.9-5.9c-1.7-1.7-3.6-3-5.9-3.9c-2.2-1-4.6-1.5-7.2-1.5h-7.5c-2.6,0-5,0.4-7.2,1.1
		c-2.2,0.8-4.2,1.9-5.9,3.3c-1.7,1.4-3,3.1-3.9,5.1c-1,2-1.5,4.3-1.5,6.8c0,3.7,0.8,6.6,2.5,9c1.7,2.3,3.9,4.3,6.6,5.9
		s5.8,2.9,9.3,4s7,2.2,10.7,3.3c3.6,1.1,7.2,2.4,10.7,3.9c3.5,1.4,6.6,3.3,9.3,5.6c2.7,2.3,4.9,5.1,6.6,8.6
		C1229.3,436.9,1230.1,441.1,1230.1,446.1z"/>
	<path d="M1293.3,473.1c-3.9,0-7.5-0.7-10.9-2.2c-3.4-1.5-6.4-3.5-8.9-6c-2.5-2.6-4.5-5.5-6-8.9s-2.2-7-2.2-10.9v-66h-19.1V367h19.1
		v-25.5l12.7-2.1V367h26.9v12.1H1278v66.6c0,2.1,0.4,4.1,1.2,6c0.8,1.8,1.9,3.4,3.3,4.8c1.4,1.4,3,2.5,4.9,3.3
		c1.9,0.8,3.9,1.2,6,1.2h11.6v12.1H1293.3L1293.3,473.1z"/>
	<path d="M1394.9,473.1l-7-10.6c-2.9,3.8-6.5,6.9-10.9,9.2c-4.4,2.3-9.1,3.5-14.3,3.5h-3.2c-4.3,0-8.3-0.8-12.1-2.4
		s-7.1-3.8-9.9-6.7c-2.8-2.8-5.1-6.1-6.7-9.9c-1.6-3.8-2.4-7.8-2.4-12.1v-1c0-4.3,0.8-8.3,2.4-12.1c1.6-3.8,3.8-7.1,6.7-9.9
		c2.8-2.8,6.1-5.1,9.9-6.7c3.8-1.6,7.8-2.4,12.1-2.4h26.9v-16.4c0-2.5-0.5-5-1.4-7.2c-1-2.2-2.3-4.2-3.9-5.9c-1.7-1.7-3.6-3-5.9-3.9
		c-2.2-1-4.6-1.5-7.2-1.5h-7.5c-2.6,0-5,0.5-7.2,1.5c-2.2,1-4.2,2.3-5.9,3.9c-1.7,1.7-3,3.6-3.9,5.9c-1,2.2-1.5,4.6-1.5,7.2v3.8
		l-12.7-2.1v-1c0-4.3,0.8-8.3,2.4-12.1c1.6-3.8,3.9-7.1,6.7-10c2.8-2.8,6.1-5.1,9.9-6.7c3.8-1.6,7.8-2.4,12.1-2.4h7.5
		c4.3,0,8.3,0.8,12.1,2.4c3.8,1.6,7.1,3.9,9.9,6.7c2.8,2.8,5.1,6.1,6.7,10c1.6,3.8,2.4,7.8,2.4,12.1v77L1394.9,473.1L1394.9,473.1z
		 M1386.4,421.7h-26.9c-2.6,0-5,0.5-7.2,1.4c-2.2,1-4.2,2.3-5.9,4c-1.7,1.7-3,3.7-3.9,5.9c-1,2.2-1.5,4.6-1.5,7.2v4.4
		c0,2.6,0.5,5,1.5,7.2s2.3,4.2,3.9,5.9c1.7,1.6,3.6,3,5.9,3.9c2.2,1,4.6,1.4,7.2,1.4h8.5c2.6,0,5-0.5,7.2-1.4c2.2-1,4.2-2.3,5.9-3.9
		c1.7-1.7,3-3.6,3.9-5.9c1-2.2,1.4-4.6,1.4-7.2V421.7L1386.4,421.7z"/>
	<path d="M1463.3,473.1c-3.9,0-7.5-0.7-10.9-2.2s-6.4-3.5-8.9-6c-2.5-2.6-4.5-5.5-6-8.9s-2.2-7-2.2-10.9v-66h-19.1V367h19.1v-25.5
		l12.7-2.1V367h26.9v12.1H1448v66.6c0,2.1,0.4,4.1,1.2,6c0.8,1.8,1.9,3.4,3.3,4.8s3,2.5,4.9,3.3s3.9,1.2,6,1.2h11.6v12.1H1463.3
		L1463.3,473.1z"/>
	<path d="M1501.4,341.5v-17h14.8v17H1501.4z M1502.6,473.1V367h12.7v106.1H1502.6L1502.6,473.1z"/>
	<path d="M1613.4,456.1c-1.6,3.8-3.9,7.1-6.7,9.9s-6.1,5.1-9.9,6.7s-7.8,2.4-12.1,2.4h-8.5c-4.3,0-8.3-0.8-12.1-2.4
		c-3.8-1.6-7.1-3.8-9.9-6.7c-2.8-2.8-5.1-6.1-6.7-9.9s-2.4-7.8-2.4-12.1v-47.9c0-4.3,0.8-8.3,2.4-12.1c1.6-3.8,3.9-7.1,6.7-10
		c2.8-2.8,6.1-5.1,9.9-6.7s7.8-2.4,12.1-2.4h8.5c4.3,0,8.3,0.8,12.1,2.4s7.1,3.9,9.9,6.7c2.8,2.8,5.1,6.1,6.7,10
		c1.6,3.8,2.4,7.8,2.4,12.1V444C1615.9,448.2,1615.1,452.3,1613.4,456.1z M1603.1,395.4c0-2.5-0.5-5-1.4-7.2c-1-2.2-2.3-4.2-3.9-5.9
		c-1.7-1.7-3.6-3-5.9-3.9c-2.2-1-4.6-1.5-7.2-1.5h-8.5c-2.6,0-5,0.5-7.2,1.5s-4.2,2.3-5.9,3.9c-1.7,1.7-3,3.6-3.9,5.9
		c-1,2.2-1.4,4.6-1.4,7.2v49.3c0,2.6,0.5,5,1.4,7.2c1,2.2,2.3,4.2,3.9,5.9c1.7,1.6,3.6,3,5.9,3.9c2.2,1,4.6,1.4,7.2,1.4h8.5
		c2.6,0,5-0.5,7.2-1.4c2.2-1,4.2-2.3,5.9-3.9c1.7-1.7,3-3.6,3.9-5.9c1-2.2,1.4-4.6,1.4-7.2V395.4z"/>
	<path d="M1699.4,473.1v-77.7c0-2.5-0.5-5-1.4-7.2c-1-2.2-2.3-4.2-3.9-5.9c-1.7-1.7-3.6-3-5.9-3.9c-2.2-1-4.6-1.5-7.2-1.5h-8.5
		c-2.6,0-5,0.5-7.2,1.5s-4.2,2.3-5.9,3.9c-1.7,1.7-3,3.6-3.9,5.9c-1,2.2-1.5,4.6-1.5,7.2v77.7h-12.7V367h4.2l6.9,10.8
		c2.9-3.9,6.5-7.1,10.9-9.4s9.2-3.5,14.3-3.5h3.2c4.3,0,8.3,0.8,12.1,2.4c3.8,1.6,7.1,3.9,9.9,6.7c2.8,2.8,5.1,6.1,6.7,10
		c1.6,3.8,2.4,7.8,2.4,12.1v77H1699.4L1699.4,473.1z"/>
</g>
<g id="Layer_3">
</g>
</svg>
